{"title":"Frozen (2013) DVDScr XViD AC3 - FiNGERBLaST","uid":9448217,"size":1535639648,"categoryP":"video","categoryS":"movies","magnet":"?xt=urn:btih:9015ebb0b97df8a58c209876591820dab6628038&amp;dn=Frozen+%282013%29+DVDScr+XViD+AC3+-+FiNGERBLaST&amp;tr=udp%3A%2F%2Ftracker.openbittorrent.com%3A80&amp;tr=udp%3A%2F%2Fopen.demonii.com%3A1337&amp;tr=udp%3A%2F%2Ftracker.coppersurfer.tk%3A6969&amp;tr=udp%3A%2F%2Fexodus.desync.com%3A6969","seeders":24,"leechers":3,"uploader":"tykoon123","files":5,"time":1389127750,"description":" &lt;a href=&quot;http://www.imageurlhost.com/images/hy0sctdf95m3enq27j4c.jpg&quot; rel=&quot;nofollow&quot; target=&quot;_NEW&quot;&gt;http://www.imageurlhost.com/images/hy0sctdf95m3enq27j4c.jpg&lt;/a&gt;\n\nInfo:\n &lt;a href=&quot;\nhttp://hollytorrents.com/torrents-details.php?id=266&quot; rel=&quot;nofollow&quot; target=&quot;_NEW&quot;&gt;\nhttp://hollytorrents.com/torrents-details.php?id=266&lt;/a&gt;\n\nFormat : AVI\nFormat/Info : Audio Video Interleave\nFile size : 1.43 GiB\nDuration : 1h 40mn\nOverall bit rate : 2 031 Kbps\nWriting library : VirtualDub build 30091/release\n\nVideo\nID : 0\nFormat : MPEG-4 Visual\nFormat profile : Advanced Simple@L5\nFormat settings, BVOP : 2\nFormat settings, QPel : No\nFormat settings, GMC : No warppoints\nFormat settings, Matrix : Default (H.263)\nMuxing mode : Packed bitstream\nCodec ID : XVID\nCodec ID/Hint : XviD\nDuration : 1h 40mn\nBit rate : 1 572 Kbps\nWidth : 720 pixels\nHeight : 320 pixels\nDisplay aspect ratio : 2.25:1\nFrame rate : 29.970 fps\nColor space : YUV\nChroma subsampling : 4:2:0\nBit depth : 8 bits\nScan type : Progressive\nCompression mode : Lossy\nBits/(Pixel*Frame) : 0.228\nStream size : 1.11 GiB (77%)\nWriting library : XviD 64\n\nAudio\nID : 1\nFormat : AC-3\nFormat/Info : Audio Coding 3\nMode extension : CM (complete main)\nFormat settings, Endianness : Big\nCodec ID : 2000\nDuration : 1h 40mn\nBit rate mode : Constant\nBit rate : 448 Kbps\nChannel(s) : 6 channels\nChannel positions : Front: L C R, Side: L R, LFE\nSampling rate : 48.0 KHz\nBit depth : 16 bits\nCompression mode : Lossy\nStream size : 323 MiB (22%)\nAlignment : Aligned on interleaves\nInterleave, duration : 33 ms (1.00 video frame)\nInterleave, preload duration : 512 ms\n\n\nScreens: &lt;a href=&quot;\nhttp://www.imageurlhost.com/images/1o56j136go5udfjtky76.jpg&quot; rel=&quot;nofollow&quot; target=&quot;_NEW&quot;&gt;\nhttp://www.imageurlhost.com/images/1o56j136go5udfjtky76.jpg&lt;/a&gt; &lt;a href=&quot;\nhttp://www.imageurlhost.com/images/mn9tkejvxuaebhflinb4.jpg&quot; rel=&quot;nofollow&quot; target=&quot;_NEW&quot;&gt;\nhttp://www.imageurlhost.com/images/mn9tkejvxuaebhflinb4.jpg&lt;/a&gt; &lt;a href=&quot;\nhttp://www.imageurlhost.com/images/e3hstkowywpulhu1x5bo.jpg&quot; rel=&quot;nofollow&quot; target=&quot;_NEW&quot;&gt;\nhttp://www.imageurlhost.com/images/e3hstkowywpulhu1x5bo.jpg&lt;/a&gt; &lt;a href=&quot;\nhttp://www.imageurlhost.com/images/m3qzyyuzfoexsb99jevl.jpg&quot; rel=&quot;nofollow&quot; target=&quot;_NEW&quot;&gt;\nhttp://www.imageurlhost.com/images/m3qzyyuzfoexsb99jevl.jpg&lt;/a&gt;\n\n","torrent":{"xt":"urn:btih:9015ebb0b97df8a58c209876591820dab6628038","amp;dn":"Frozen+%282013%29+DVDScr+XViD+AC3+-+FiNGERBLaST","amp;tr":["udp%3A%2F%2Ftracker.openbittorrent.com%3A80","udp%3A%2F%2Fopen.demonii.com%3A1337","udp%3A%2F%2Ftracker.coppersurfer.tk%3A6969","udp%3A%2F%2Fexodus.desync.com%3A6969"],"infoHash":"9015ebb0b97df8a58c209876591820dab6628038","infoHashBuffer":{"type":"Buffer","data":[144,21,235,176,185,125,248,165,140,32,152,118,89,24,32,218,182,98,128,56]},"announce":[],"urlList":[]}}